<?xml version="1.0" standalone="yes"?>

<svg version="1.1" viewBox="0.0 0.0 192.0 192.0" fill="none" stroke="none" stroke-linecap="square" stroke-miterlimit="10" xmlns="http://www.w3.org/2000/svg" xmlns:xlink="http://www.w3.org/1999/xlink"><clipPath id="p.0"><path d="m0 0l192.0 0l0 192.0l-192.0 0l0 -192.0z" clip-rule="nonzero"></path></clipPath><g clip-path="url(#p.0)"><path fill="#000000" fill-opacity="0.0" d="m0 0l192.0 0l0 192.0l-192.0 0z" fill-rule="evenodd"></path><path fill="#f1c232" d="m135.46608 127.231544c1.8882751 0 2.8323975 0.88443756 2.8323975 2.6533127c0 2.8123016 -1.4360657 5.4556885 -4.3082275 7.93013c-2.8622131 2.4644928 -5.3914948 3.7315216 -7.587845 3.8010864c-0.24845123 0 -0.37268066 -0.42730713 -0.37268066 -1.2819366c0 -3.607315 0.94412994 -6.6929016 2.8323975 -9.256775c1.8982086 -2.5638885 4.099518 -3.8458176 6.603958 -3.8458176zm2.012497 -8.243156c-7.016403 0 -12.467522 2.2160645 -16.35337 6.6481857c-3.8759155 4.422188 -5.8138733 9.639366 -5.8138733 15.651558c0 6.012192 1.6199341 10.821945 4.8598022 14.42926c3.2398605 3.5973663 7.8810196 5.396057 13.92347 5.396057c6.04245 0 10.102219 -0.70059204 12.179306 -2.1017761c1.5305023 -1.9577026 2.2957458 -4.705414 2.2957458 -8.243164c0 -1.1626892 -0.06460571 -1.7440338 -0.19380188 -1.7440338c-0.119262695 0 -0.20869446 0.029815674 -0.2683258 0.08944702c-2.6833344 1.6496124 -6.345566 2.4744263 -10.986725 2.4744263c-1.470871 0 -2.9566345 -0.2285614 -4.457306 -0.6856842c-1.4907379 -0.4571228 -2.2360992 -1.0533752 -2.2360992 -1.7887421c5.744293 -1.9477539 10.276138 -4.784912 13.595505 -8.511475c3.3293152 -3.7265625 4.993973 -7.4978485 4.993973 -11.313843c0 -3.816002 -1.2075043 -6.484215 -3.6224976 -8.004654c-2.4050446 -1.5303802 -5.0436554 -2.2955627 -7.915802 -2.2955627z" fill-rule="evenodd"></path><path stroke="#000000" stroke-width="1.0" stroke-linejoin="round" stroke-linecap="butt" d="m135.46608 127.231544c1.8882751 0 2.8323975 0.88443756 2.8323975 2.6533127c0 2.8123016 -1.4360657 5.4556885 -4.3082275 7.93013c-2.8622131 2.4644928 -5.3914948 3.7315216 -7.587845 3.8010864c-0.24845123 0 -0.37268066 -0.42730713 -0.37268066 -1.2819366c0 -3.607315 0.94412994 -6.6929016 2.8323975 -9.256775c1.8982086 -2.5638885 4.099518 -3.8458176 6.603958 -3.8458176zm2.012497 -8.243156c-7.016403 0 -12.467522 2.2160645 -16.35337 6.6481857c-3.8759155 4.422188 -5.8138733 9.639366 -5.8138733 15.651558c0 6.012192 1.6199341 10.821945 4.8598022 14.42926c3.2398605 3.5973663 7.8810196 5.396057 13.92347 5.396057c6.04245 0 10.102219 -0.70059204 12.179306 -2.1017761c1.5305023 -1.9577026 2.2957458 -4.705414 2.2957458 -8.243164c0 -1.1626892 -0.06460571 -1.7440338 -0.19380188 -1.7440338c-0.119262695 0 -0.20869446 0.029815674 -0.2683258 0.08944702c-2.6833344 1.6496124 -6.345566 2.4744263 -10.986725 2.4744263c-1.470871 0 -2.9566345 -0.2285614 -4.457306 -0.6856842c-1.4907379 -0.4571228 -2.2360992 -1.0533752 -2.2360992 -1.7887421c5.744293 -1.9477539 10.276138 -4.784912 13.595505 -8.511475c3.3293152 -3.7265625 4.993973 -7.4978485 4.993973 -11.313843c0 -3.816002 -1.2075043 -6.484215 -3.6224976 -8.004654c-2.4050446 -1.5303802 -5.0436554 -2.2955627 -7.915802 -2.2955627z" fill-rule="evenodd"></path><path fill="#cc0000" d="m120.73401 93.41734c-0.50940704 0 -2.3177872 2.6805725 -5.4251404 8.041725c-3.1073608 5.3547897 -4.7788315 8.461967 -5.014435 9.321533l-0.124168396 0c-1.445427 -2.1903076 -3.6931686 -6.532715 -6.7432175 -13.027222c-0.98059845 -2.0693283 -1.521843 -3.1421967 -1.6237183 -3.2185974c-0.09551239 -0.08277893 -1.0028915 -0.12416077 -2.7221222 -0.12416077c-1.7192383 0 -3.419365 0.1559906 -5.100395 0.46798706c-0.63038635 0.12097168 -0.99333954 0.22921753 -1.0888519 0.3247223c-0.09551239 0.09550476 -0.27062225 0.52529144 -0.52532196 1.2893524c-0.2546997 0.764061 -0.38204956 1.3211823 -0.38204956 1.6713791c0 0.35019684 0.019104004 0.5666809 0.057304382 0.6494522c1.5664139 0 2.7985306 0.44888306 3.6963577 1.3466568c0.2355957 0.31198883 1.7510681 2.983017 4.546417 8.013077c2.7953491 5.0236893 4.740631 8.299599 5.835846 9.827721l0 0.76405334l-0.17192078 16.131218c0.47119904 0.3119812 1.3021622 0.46798706 2.4928894 0.46798706c1.1970978 0 2.4196625 -0.11779785 3.6677017 -0.3533783c1.2544022 -0.22921753 1.881607 -0.57940674 1.881607 -1.0505829c-0.31201172 -1.3307343 -0.46801758 -4.125931 -0.46801758 -8.385559c0 -4.265999 0.038208008 -6.7905807 0.114616394 -7.573738c0.6240158 -2.273079 2.6457138 -5.959671 6.0650787 -11.059769c3.4257355 -5.106468 6.176506 -8.815338 8.252327 -11.126617c0.03820038 -0.22921753 -0.2769928 -0.5284805 -0.9455795 -0.89777374c-0.6622238 -0.37566376 -1.5791473 -0.71949005 -2.7507782 -1.0314789c-1.1716232 -0.31198883 -2.3464355 -0.46798706 -3.5244293 -0.46798706z" fill-rule="evenodd"></path><path stroke="#000000" stroke-width="1.0" stroke-linejoin="round" stroke-linecap="butt" d="m120.73401 93.41734c-0.50940704 0 -2.3177872 2.6805725 -5.4251404 8.041725c-3.1073608 5.3547897 -4.7788315 8.461967 -5.014435 9.321533l-0.124168396 0c-1.445427 -2.1903076 -3.6931686 -6.532715 -6.7432175 -13.027222c-0.98059845 -2.0693283 -1.521843 -3.1421967 -1.6237183 -3.2185974c-0.09551239 -0.08277893 -1.0028915 -0.12416077 -2.7221222 -0.12416077c-1.7192383 0 -3.419365 0.1559906 -5.100395 0.46798706c-0.63038635 0.12097168 -0.99333954 0.22921753 -1.0888519 0.3247223c-0.09551239 0.09550476 -0.27062225 0.52529144 -0.52532196 1.2893524c-0.2546997 0.764061 -0.38204956 1.3211823 -0.38204956 1.6713791c0 0.35019684 0.019104004 0.5666809 0.057304382 0.6494522c1.5664139 0 2.7985306 0.44888306 3.6963577 1.3466568c0.2355957 0.31198883 1.7510681 2.983017 4.546417 8.013077c2.7953491 5.0236893 4.740631 8.299599 5.835846 9.827721l0 0.76405334l-0.17192078 16.131218c0.47119904 0.3119812 1.3021622 0.46798706 2.4928894 0.46798706c1.1970978 0 2.4196625 -0.11779785 3.6677017 -0.3533783c1.2544022 -0.22921753 1.881607 -0.57940674 1.881607 -1.0505829c-0.31201172 -1.3307343 -0.46801758 -4.125931 -0.46801758 -8.385559c0 -4.265999 0.038208008 -6.7905807 0.114616394 -7.573738c0.6240158 -2.273079 2.6457138 -5.959671 6.0650787 -11.059769c3.4257355 -5.106468 6.176506 -8.815338 8.252327 -11.126617c0.03820038 -0.22921753 -0.2769928 -0.5284805 -0.9455795 -0.89777374c-0.6622238 -0.37566376 -1.5791473 -0.71949005 -2.7507782 -1.0314789c-1.1716232 -0.31198883 -2.3464355 -0.46798706 -3.5244293 -0.46798706z" fill-rule="evenodd"></path><path fill="#3c78d8" d="m107.01514 130.0263c2.8106613 0 5.132065 0.43719482 6.964203 1.3115692c1.8321381 0.8743744 2.748207 2.241455 2.748207 4.101242c0 1.8528442 -1.183258 3.7299652 -3.5497665 5.6313934c-2.3595734 1.8944702 -6.0550766 3.0741882 -11.086517 3.5391388c0 -7.633438 0.124923706 -12.36618 0.37475586 -14.198196c1.5406647 -0.25675964 3.0570374 -0.3851471 4.549118 -0.3851471zm-2.8835373 -6.713951c-2.6857452 0 -5.3402634 0.07633209 -7.9635544 0.2290039c-2.623291 0.14572906 -3.9765701 0.2741089 -4.0598526 0.38513947c-0.08327484 0.10409546 -0.12491608 0.3365631 -0.12491608 0.6974182c0 0.3608551 0.26371765 1.3323822 0.79115295 2.914589c0.5343704 1.575264 1.079155 2.702919 1.634346 3.3830032l-0.38516235 36.900726c0.68704987 0.25675964 1.4990234 0.3851471 2.435913 0.3851471c0.936882 0 2.1097336 -0.13879395 3.5185318 -0.41636658c1.4088058 -0.2775879 2.3456955 -0.6488495 2.810669 -1.1138c-0.34005737 -1.4087067 -0.5517273 -6.3982086 -0.63500214 -14.968475c3.53936 -0.59680176 5.56234 -1.0443878 6.0689545 -1.3427887c0.2567749 1.1935883 1.5475998 4.4343414 3.8724747 9.722229c2.3248749 5.2878876 3.9557495 8.400253 4.892639 9.337082l1.6031265 0.12490845c2.1721878 0 4.195175 -0.44760132 6.0689545 -1.3427887c0.68704987 -0.29840088 1.0305786 -0.49964905 1.0305786 -0.6037445c0 -0.1040802 -0.020820618 -0.18041992 -0.062461853 -0.2290039c-1.5822983 -1.5752563 -3.7163239 -5.0796967 -6.402069 -10.513321c-2.6857529 -5.4405518 -4.0286255 -8.50087 -4.0286255 -9.180939c3.0674438 -1.4919891 5.496414 -3.3240204 7.286911 -5.4960785c1.7904968 -2.1790009 2.6857529 -4.534958 2.6857529 -7.067871c0 -2.539856 -0.6592941 -4.618225 -1.9778824 -6.235138c-1.3185806 -1.6238327 -3.1090775 -2.8070145 -5.3714905 -3.5495453c-2.262413 -0.7494583 -4.43808 -1.2733917 -6.526993 -1.5717926c-2.088913 -0.29839325 -4.4762497 -0.4475937 -7.161995 -0.4475937z" fill-rule="evenodd"></path><path stroke="#000000" stroke-width="1.0" stroke-linejoin="round" stroke-linecap="butt" d="m107.01514 130.0263c2.8106613 0 5.132065 0.43719482 6.964203 1.3115692c1.8321381 0.8743744 2.748207 2.241455 2.748207 4.101242c0 1.8528442 -1.183258 3.7299652 -3.5497665 5.6313934c-2.3595734 1.8944702 -6.0550766 3.0741882 -11.086517 3.5391388c0 -7.633438 0.124923706 -12.36618 0.37475586 -14.198196c1.5406647 -0.25675964 3.0570374 -0.3851471 4.549118 -0.3851471zm-2.8835373 -6.713951c-2.6857452 0 -5.3402634 0.07633209 -7.9635544 0.2290039c-2.623291 0.14572906 -3.9765701 0.2741089 -4.0598526 0.38513947c-0.08327484 0.10409546 -0.12491608 0.3365631 -0.12491608 0.6974182c0 0.3608551 0.26371765 1.3323822 0.79115295 2.914589c0.5343704 1.575264 1.079155 2.702919 1.634346 3.3830032l-0.38516235 36.900726c0.68704987 0.25675964 1.4990234 0.3851471 2.435913 0.3851471c0.936882 0 2.1097336 -0.13879395 3.5185318 -0.41636658c1.4088058 -0.2775879 2.3456955 -0.6488495 2.810669 -1.1138c-0.34005737 -1.4087067 -0.5517273 -6.3982086 -0.63500214 -14.968475c3.53936 -0.59680176 5.56234 -1.0443878 6.0689545 -1.3427887c0.2567749 1.1935883 1.5475998 4.4343414 3.8724747 9.722229c2.3248749 5.2878876 3.9557495 8.400253 4.892639 9.337082l1.6031265 0.12490845c2.1721878 0 4.195175 -0.44760132 6.0689545 -1.3427887c0.68704987 -0.29840088 1.0305786 -0.49964905 1.0305786 -0.6037445c0 -0.1040802 -0.020820618 -0.18041992 -0.062461853 -0.2290039c-1.5822983 -1.5752563 -3.7163239 -5.0796967 -6.402069 -10.513321c-2.6857529 -5.4405518 -4.0286255 -8.50087 -4.0286255 -9.180939c3.0674438 -1.4919891 5.496414 -3.3240204 7.286911 -5.4960785c1.7904968 -2.1790009 2.6857529 -4.534958 2.6857529 -7.067871c0 -2.539856 -0.6592941 -4.618225 -1.9778824 -6.235138c-1.3185806 -1.6238327 -3.1090775 -2.8070145 -5.3714905 -3.5495453c-2.262413 -0.7494583 -4.43808 -1.2733917 -6.526993 -1.5717926c-2.088913 -0.29839325 -4.4762497 -0.4475937 -7.161995 -0.4475937z" fill-rule="evenodd"></path><path fill="#3c78d8" d="m117.12069 25.611609c-10.137009 0 -17.878899 1.8483734 -23.22567 5.545124c-5.3467712 3.6967487 -8.020157 7.771124 -8.020157 12.223124c0 2.991188 0.94412994 5.584877 2.8323975 7.781063c1.898201 2.196186 4.188965 3.9203415 6.8722916 5.1724663c2.6932678 1.2521248 5.3964615 2.4446259 8.109604 3.5774994c2.7230759 1.1328773 5.0287476 2.4645042 6.917015 3.9948769c1.898201 1.5204391 2.8473053 3.2893066 2.8473053 5.3066254c0 2.9911804 -1.4509811 5.5848694 -4.352951 7.7810593c-2.9019623 2.1961899 -6.305809 3.294281 -10.21154 3.294281c-1.7093735 0 -2.8721466 -0.30309296 -3.4883194 -0.90927887c-1.5205536 -1.5303726 -2.2808304 -5.8979034 -2.2808304 -13.102592c-1.8286362 0 -3.7218704 0.39749908 -5.6797028 1.1924973c-1.9578323 0.7950058 -3.0261917 1.4657822 -3.2050781 2.0123444c-0.24845886 1.2223129 -0.3726883 4.8395615 -0.3726883 10.851746c0 6.012192 0.27827454 9.296539 0.834816 9.853035c2.19635 0.48693085 5.5505066 0.7304077 10.0624695 0.7304077c8.984169 0 16.417969 -2.151474 22.301407 -6.4544067c5.893379 -4.3128815 8.840065 -9.549942 8.840065 -15.711189c0 -3.4781265 -0.92922974 -6.454403 -2.787674 -8.928841c-1.8584518 -2.4744377 -4.1194 -4.352627 -6.782852 -5.6345634c-2.653511 -1.2819366 -5.2921143 -2.4247513 -7.9158096 -3.4284363c-2.6236954 -1.0136261 -4.8697357 -2.111721 -6.738121 -3.294281c-1.8584518 -1.1925011 -2.7876816 -2.5688438 -2.7876816 -4.129032c0 -1.5601883 0.61120605 -2.8868446 1.8336105 -3.979969c1.2223969 -1.1030617 2.7926407 -1.9129639 4.710724 -2.429718c1.9280167 -0.51675034 3.7914352 -0.8993454 5.5902557 -1.1477814c1.7988205 -0.24843597 3.3243408 -0.37265396 4.576561 -0.37265396c1.2522202 0 2.365303 0.064590454 3.3392487 0.19377899c0.67580414 -0.73537064 1.2273712 -2.1067467 1.6547165 -4.1141224c0.42734528 -2.017313 0.6410141 -3.3787518 0.6410141 -4.0843124c0 -0.7055645 -0.029808044 -1.1477814 -0.08943939 -1.3266563c-0.30808258 -0.3080616 -1.6497498 -0.46209335 -4.0249863 -0.46209335z" fill-rule="evenodd"></path><path stroke="#000000" stroke-width="1.0" stroke-linejoin="round" stroke-linecap="butt" d="m117.12069 25.611609c-10.137009 0 -17.878899 1.8483734 -23.22567 5.545124c-5.3467712 3.6967487 -8.020157 7.771124 -8.020157 12.223124c0 2.991188 0.94412994 5.584877 2.8323975 7.781063c1.898201 2.196186 4.188965 3.9203415 6.8722916 5.1724663c2.6932678 1.2521248 5.3964615 2.4446259 8.109604 3.5774994c2.7230759 1.1328773 5.0287476 2.4645042 6.917015 3.9948769c1.898201 1.5204391 2.8473053 3.2893066 2.8473053 5.3066254c0 2.9911804 -1.4509811 5.5848694 -4.352951 7.7810593c-2.9019623 2.1961899 -6.305809 3.294281 -10.21154 3.294281c-1.7093735 0 -2.8721466 -0.30309296 -3.4883194 -0.90927887c-1.5205536 -1.5303726 -2.2808304 -5.8979034 -2.2808304 -13.102592c-1.8286362 0 -3.7218704 0.39749908 -5.6797028 1.1924973c-1.9578323 0.7950058 -3.0261917 1.4657822 -3.2050781 2.0123444c-0.24845886 1.2223129 -0.3726883 4.8395615 -0.3726883 10.851746c0 6.012192 0.27827454 9.296539 0.834816 9.853035c2.19635 0.48693085 5.5505066 0.7304077 10.0624695 0.7304077c8.984169 0 16.417969 -2.151474 22.301407 -6.4544067c5.893379 -4.3128815 8.840065 -9.549942 8.840065 -15.711189c0 -3.4781265 -0.92922974 -6.454403 -2.787674 -8.928841c-1.8584518 -2.4744377 -4.1194 -4.352627 -6.782852 -5.6345634c-2.653511 -1.2819366 -5.2921143 -2.4247513 -7.9158096 -3.4284363c-2.6236954 -1.0136261 -4.8697357 -2.111721 -6.738121 -3.294281c-1.8584518 -1.1925011 -2.7876816 -2.5688438 -2.7876816 -4.129032c0 -1.5601883 0.61120605 -2.8868446 1.8336105 -3.979969c1.2223969 -1.1030617 2.7926407 -1.9129639 4.710724 -2.429718c1.9280167 -0.51675034 3.7914352 -0.8993454 5.5902557 -1.1477814c1.7988205 -0.24843597 3.3243408 -0.37265396 4.576561 -0.37265396c1.2522202 0 2.365303 0.064590454 3.3392487 0.19377899c0.67580414 -0.73537064 1.2273712 -2.1067467 1.6547165 -4.1141224c0.42734528 -2.017313 0.6410141 -3.3787518 0.6410141 -4.0843124c0 -0.7055645 -0.029808044 -1.1477814 -0.08943939 -1.3266563c-0.30808258 -0.3080616 -1.6497498 -0.46209335 -4.0249863 -0.46209335z" fill-rule="evenodd"></path><path fill="#cc4125" d="m38.670567 62.77313c0.06286621 0 0.09429932 0.6107025 0.09429932 1.8320961l0 3.1388016c0 2.3709412 -0.79031754 4.0548553 -2.3709564 5.0517273c-1.5716591 0.98789215 -3.1972008 1.4818344 -4.876631 1.4818344c-1.6794281 0 -2.9367542 -0.38616943 -3.7719784 -1.1585236c-0.82624245 -0.7723541 -1.2393646 -1.737793 -1.2393646 -2.8963242c0 -1.8141251 0.85767746 -3.3274002 2.5730286 -4.539818c2.703251 -1.9398613 5.9004517 -2.9097939 9.591602 -2.9097939zm-9.093163 -19.277378c-3.4756088 0 -5.4514065 0.25146484 -5.927393 0.7543907c-0.4670086 0.49394608 -1.0462761 1.5671577 -1.7378044 3.2196312c-0.68255043 1.6524773 -1.0238228 3.0310364 -1.0238228 4.1356773l0.08082771 0c1.3201923 -0.22452164 3.331913 -0.33678055 6.035166 -0.33678055c6.8434467 0 10.265169 1.3561096 10.265169 4.068321l-0.16165543 0.08082962c-1.930893 0 -4.580261 0.5523224 -7.948099 1.6569633c-2.209301 0.6556015 -4.2255135 1.5357246 -6.0486355 2.6403694c-1.8141422 1.1046448 -3.399271 2.7211952 -4.7553883 4.849659c-1.3471336 2.1194763 -2.0207024 4.7239227 -2.0207024 7.8133316c0 3.0894089 1.0597458 5.58609 3.1792393 7.4900208c2.1284733 1.9039459 5.150547 2.8559113 9.066219 2.8559113c3.9156723 0 7.3373947 -1.1585312 10.265171 -3.475586l0.24248123 -0.16165924c0.053886414 0 0.12124252 0.35923767 0.20207214 1.0777054c0.08980942 0.7184677 0.40863037 1.8051453 0.9564667 3.260048c0.5568161 1.4638748 1.0821991 2.195816 1.576149 2.195816c1.7692337 0 3.7405434 -0.6062088 5.9139214 -1.8186264c2.1823578 -1.21241 3.2735367 -2.1239624 3.2735367 -2.734665c-1.436943 -1.3201828 -2.3754463 -3.4980392 -2.8155098 -6.5335617c-0.16165543 -1.1585312 -0.24248505 -5.1864395 -0.24248505 -12.083725l0 -4.216507c0 -5.029274 -1.4908295 -8.742851 -4.4724884 -11.140739c-2.981659 -2.3978844 -7.615803 -3.5968246 -13.902435 -3.5968246z" fill-rule="evenodd"></path><path stroke="#000000" stroke-width="1.0" stroke-linejoin="round" stroke-linecap="butt" d="m38.670567 62.77313c0.06286621 0 0.09429932 0.6107025 0.09429932 1.8320961l0 3.1388016c0 2.3709412 -0.79031754 4.0548553 -2.3709564 5.0517273c-1.5716591 0.98789215 -3.1972008 1.4818344 -4.876631 1.4818344c-1.6794281 0 -2.9367542 -0.38616943 -3.7719784 -1.1585236c-0.82624245 -0.7723541 -1.2393646 -1.737793 -1.2393646 -2.8963242c0 -1.8141251 0.85767746 -3.3274002 2.5730286 -4.539818c2.703251 -1.9398613 5.9004517 -2.9097939 9.591602 -2.9097939zm-9.093163 -19.277378c-3.4756088 0 -5.4514065 0.25146484 -5.927393 0.7543907c-0.4670086 0.49394608 -1.0462761 1.5671577 -1.7378044 3.2196312c-0.68255043 1.6524773 -1.0238228 3.0310364 -1.0238228 4.1356773l0.08082771 0c1.3201923 -0.22452164 3.331913 -0.33678055 6.035166 -0.33678055c6.8434467 0 10.265169 1.3561096 10.265169 4.068321l-0.16165543 0.08082962c-1.930893 0 -4.580261 0.5523224 -7.948099 1.6569633c-2.209301 0.6556015 -4.2255135 1.5357246 -6.0486355 2.6403694c-1.8141422 1.1046448 -3.399271 2.7211952 -4.7553883 4.849659c-1.3471336 2.1194763 -2.0207024 4.7239227 -2.0207024 7.8133316c0 3.0894089 1.0597458 5.58609 3.1792393 7.4900208c2.1284733 1.9039459 5.150547 2.8559113 9.066219 2.8559113c3.9156723 0 7.3373947 -1.1585312 10.265171 -3.475586l0.24248123 -0.16165924c0.053886414 0 0.12124252 0.35923767 0.20207214 1.0777054c0.08980942 0.7184677 0.40863037 1.8051453 0.9564667 3.260048c0.5568161 1.4638748 1.0821991 2.195816 1.576149 2.195816c1.7692337 0 3.7405434 -0.6062088 5.9139214 -1.8186264c2.1823578 -1.21241 3.2735367 -2.1239624 3.2735367 -2.734665c-1.436943 -1.3201828 -2.3754463 -3.4980392 -2.8155098 -6.5335617c-0.16165543 -1.1585312 -0.24248505 -5.1864395 -0.24248505 -12.083725l0 -4.216507c0 -5.029274 -1.4908295 -8.742851 -4.4724884 -11.140739c-2.981659 -2.3978844 -7.615803 -3.5968246 -13.902435 -3.5968246z" fill-rule="evenodd"></path><path fill="#6aa84f" d="m82.955215 34.845043c-3.453308 0 -6.906624 0.4540367 -10.35994 1.3621063c-0.111190796 0.117370605 -0.25328064 0.5281639 -0.42625427 1.2323799c-0.17297363 0.6980438 -0.25946045 1.2292938 -0.25946045 1.5937576c0 0.3582878 0.0185318 0.5930252 0.055595398 0.704216c0.72278595 0.07413101 1.4332199 0.3119583 2.1312943 0.7134857c0.70425415 0.3953514 1.0563812 0.8030548 1.0563812 1.223114c0 4.175888 -0.49421692 8.617401 -1.4826431 13.324543c-0.9822464 4.707138 -1.797699 7.9502487 -2.44635 9.729321c-0.15745544 0.414505 -0.29736328 0.6217575 -0.41971588 0.6217575c-0.11286926 0 -0.2108078 -0.17636871 -0.29380798 -0.5290909c-0.16679382 -0.74128723 -0.6301193 -2.96204 -1.3899689 -6.6622734c-0.7598572 -3.7002335 -1.4641113 -7.076153 -2.1127625 -10.127766c-0.64247894 -3.057785 -1.0193176 -4.642277 -1.1305084 -4.7534676c-0.111198425 -0.117370605 -0.8525238 -0.21620941 -2.2239609 -0.2965126c-2.4648895 0 -4.379963 0.265625 -5.745228 0.7968788c-0.68571854 0.7227478 -2.58535 7.1008606 -5.6988907 19.134338c-0.111198425 0.2656212 -0.21622086 0.3984375 -0.31506348 0.3984375c-0.09266281 0 -0.17606354 -0.13281631 -0.25019455 -0.3984375c-0.79691696 -2.0138206 -1.6247253 -5.741848 -2.4834213 -11.184093c-0.8525162 -5.4484215 -1.4115944 -10.64048 -1.6772346 -15.576183c0 -0.0741272 -0.76911926 -0.12046051 -2.3073578 -0.13899231c-0.04295349 -5.187988E-4 -0.085811615 -7.7819824E-4 -0.12857819 -7.7819824E-4c-1.4825401 0 -2.8512764 0.3122177 -4.106209 0.9366493c-0.38301468 0.2285614 -0.5745201 0.3799057 -0.5745201 0.4540329c0 4.1388245 1.0532913 11.286018 3.159874 21.441578c2.1065826 10.149387 3.6726189 15.736797 4.6981125 16.762234c0.11737442 0.111198425 0.38301468 0.16679382 0.79691696 0.16679382c1.9027214 0 3.8394165 -0.358284 5.810093 -1.0748596c0.72278595 -0.265625 1.0841789 -0.4756546 1.0841789 -0.6300888c0 -0.7227478 0.5961418 -3.579773 1.7884331 -8.571075c1.1984673 -4.991295 2.2702904 -8.663727 3.2154732 -11.0173l0.28726196 -0.3335762c0.07413101 0 0.24401474 0.3119545 0.509655 0.9358673c0.26564026 0.6239128 1.3498192 5.927166 3.2525406 15.9097595c0.64247894 3.5705109 1.0007782 5.5071106 1.074913 5.809799c0 0.111190796 0.435524 0.1667862 1.306572 0.1667862c0.8772278 0 2.140564 -0.1698761 3.790001 -0.5096283c1.6556091 -0.3397522 2.7089005 -0.7289276 3.159874 -1.1675186c0.4571457 -0.438591 1.4455719 -3.0670547 2.9652786 -7.8853836c1.5196991 -4.8183365 2.9992523 -10.482964 4.4386444 -16.993889c1.4393997 -6.510929 2.1590958 -11.644306 2.1590958 -15.400131c0 -0.0370636 -0.30270386 -0.092659 -0.9081192 -0.16679001z" fill-rule="evenodd"></path><path stroke="#000000" stroke-width="1.0" stroke-linejoin="round" stroke-linecap="butt" d="m82.955215 34.845043c-3.453308 0 -6.906624 0.4540367 -10.35994 1.3621063c-0.111190796 0.117370605 -0.25328064 0.5281639 -0.42625427 1.2323799c-0.17297363 0.6980438 -0.25946045 1.2292938 -0.25946045 1.5937576c0 0.3582878 0.0185318 0.5930252 0.055595398 0.704216c0.72278595 0.07413101 1.4332199 0.3119583 2.1312943 0.7134857c0.70425415 0.3953514 1.0563812 0.8030548 1.0563812 1.223114c0 4.175888 -0.49421692 8.617401 -1.4826431 13.324543c-0.9822464 4.707138 -1.797699 7.9502487 -2.44635 9.729321c-0.15745544 0.414505 -0.29736328 0.6217575 -0.41971588 0.6217575c-0.11286926 0 -0.2108078 -0.17636871 -0.29380798 -0.5290909c-0.16679382 -0.74128723 -0.6301193 -2.96204 -1.3899689 -6.6622734c-0.7598572 -3.7002335 -1.4641113 -7.076153 -2.1127625 -10.127766c-0.64247894 -3.057785 -1.0193176 -4.642277 -1.1305084 -4.7534676c-0.111198425 -0.117370605 -0.8525238 -0.21620941 -2.2239609 -0.2965126c-2.4648895 0 -4.379963 0.265625 -5.745228 0.7968788c-0.68571854 0.7227478 -2.58535 7.1008606 -5.6988907 19.134338c-0.111198425 0.2656212 -0.21622086 0.3984375 -0.31506348 0.3984375c-0.09266281 0 -0.17606354 -0.13281631 -0.25019455 -0.3984375c-0.79691696 -2.0138206 -1.6247253 -5.741848 -2.4834213 -11.184093c-0.8525162 -5.4484215 -1.4115944 -10.64048 -1.6772346 -15.576183c0 -0.0741272 -0.76911926 -0.12046051 -2.3073578 -0.13899231c-0.04295349 -5.187988E-4 -0.085811615 -7.7819824E-4 -0.12857819 -7.7819824E-4c-1.4825401 0 -2.8512764 0.3122177 -4.106209 0.9366493c-0.38301468 0.2285614 -0.5745201 0.3799057 -0.5745201 0.4540329c0 4.1388245 1.0532913 11.286018 3.159874 21.441578c2.1065826 10.149387 3.6726189 15.736797 4.6981125 16.762234c0.11737442 0.111198425 0.38301468 0.16679382 0.79691696 0.16679382c1.9027214 0 3.8394165 -0.358284 5.810093 -1.0748596c0.72278595 -0.265625 1.0841789 -0.4756546 1.0841789 -0.6300888c0 -0.7227478 0.5961418 -3.579773 1.7884331 -8.571075c1.1984673 -4.991295 2.2702904 -8.663727 3.2154732 -11.0173l0.28726196 -0.3335762c0.07413101 0 0.24401474 0.3119545 0.509655 0.9358673c0.26564026 0.6239128 1.3498192 5.927166 3.2525406 15.9097595c0.64247894 3.5705109 1.0007782 5.5071106 1.074913 5.809799c0 0.111190796 0.435524 0.1667862 1.306572 0.1667862c0.8772278 0 2.140564 -0.1698761 3.790001 -0.5096283c1.6556091 -0.3397522 2.7089005 -0.7289276 3.159874 -1.1675186c0.4571457 -0.438591 1.4455719 -3.0670547 2.9652786 -7.8853836c1.5196991 -4.8183365 2.9992523 -10.482964 4.4386444 -16.993889c1.4393997 -6.510929 2.1590958 -11.644306 2.1590958 -15.400131c0 -0.0370636 -0.30270386 -0.092659 -0.9081192 -0.16679001z" fill-rule="evenodd"></path><path fill="#f1c232" d="m88.87539 57.025364c1.8882599 0 2.8323975 0.88443756 2.8323975 2.6533127c0 2.8123093 -1.4360809 5.4556847 -4.3082275 7.930126c-2.8622131 2.4645004 -5.3914948 3.7315292 -7.587845 3.801094c-0.24845886 0 -0.3726883 -0.42731476 -0.3726883 -1.2819366c0 -3.607315 0.9441376 -6.6929092 2.8323975 -9.256783c1.8982086 -2.563877 4.0995255 -3.8458138 6.6039658 -3.8458138zm2.0124893 -8.243156c-7.0163956 0 -12.467522 2.2160645 -16.35337 6.6481895c-3.8759155 4.422188 -5.8138733 9.639374 -5.8138733 15.651558c0 6.012192 1.6199341 10.821938 4.8598022 14.429253c3.2398682 3.597374 7.8810196 5.396057 13.92347 5.396057c6.04245 0 10.102226 -0.70059204 12.179314 -2.1017761c1.5304871 -1.957695 2.2957382 -4.705414 2.2957382 -8.243156c0 -1.1626892 -0.06460571 -1.7440338 -0.19380188 -1.7440338c-0.119255066 0 -0.20870209 0.029815674 -0.2683258 0.08943939c-2.6833267 1.64962 -6.3455734 2.474434 -10.986725 2.474434c-1.4708633 0 -2.956627 -0.2285614 -4.457306 -0.6856842c-1.4907303 -0.4571228 -2.2360992 -1.0533752 -2.2360992 -1.7887497c5.744301 -1.9477463 10.276138 -4.7849045 13.595512 -8.511467c3.3293076 -3.7265625 4.993965 -7.4978447 4.993965 -11.313843c0 -3.816002 -1.2074966 -6.4842186 -3.62249 -8.004658c-2.4050522 -1.5303764 -5.0436554 -2.2955627 -7.9158096 -2.2955627z" fill-rule="evenodd"></path><path stroke="#000000" stroke-width="1.0" stroke-linejoin="round" stroke-linecap="butt" d="m88.87539 57.025364c1.8882599 0 2.8323975 0.88443756 2.8323975 2.6533127c0 2.8123093 -1.4360809 5.4556847 -4.3082275 7.930126c-2.8622131 2.4645004 -5.3914948 3.7315292 -7.587845 3.801094c-0.24845886 0 -0.3726883 -0.42731476 -0.3726883 -1.2819366c0 -3.607315 0.9441376 -6.6929092 2.8323975 -9.256783c1.8982086 -2.563877 4.0995255 -3.8458138 6.6039658 -3.8458138zm2.0124893 -8.243156c-7.0163956 0 -12.467522 2.2160645 -16.35337 6.6481895c-3.8759155 4.422188 -5.8138733 9.639374 -5.8138733 15.651558c0 6.012192 1.6199341 10.821938 4.8598022 14.429253c3.2398682 3.597374 7.8810196 5.396057 13.92347 5.396057c6.04245 0 10.102226 -0.70059204 12.179314 -2.1017761c1.5304871 -1.957695 2.2957382 -4.705414 2.2957382 -8.243156c0 -1.1626892 -0.06460571 -1.7440338 -0.19380188 -1.7440338c-0.119255066 0 -0.20870209 0.029815674 -0.2683258 0.08943939c-2.6833267 1.64962 -6.3455734 2.474434 -10.986725 2.474434c-1.4708633 0 -2.956627 -0.2285614 -4.457306 -0.6856842c-1.4907303 -0.4571228 -2.2360992 -1.0533752 -2.2360992 -1.7887497c5.744301 -1.9477463 10.276138 -4.7849045 13.595512 -8.511467c3.3293076 -3.7265625 4.993965 -7.4978447 4.993965 -11.313843c0 -3.816002 -1.2074966 -6.4842186 -3.62249 -8.004658c-2.4050522 -1.5303764 -5.0436554 -2.2955627 -7.9158096 -2.2955627z" fill-rule="evenodd"></path><path fill="#e69138" d="m130.8994 51.041965c-0.18882751 0.72543716 -0.28323364 1.4856567 -0.28323364 2.280655c0 0.79499817 0.064590454 1.316719 0.19378662 1.5651588l0.73046875 0c1.3416595 0 2.7131348 0.4571228 4.1144257 1.3713722c1.8982086 1.1626892 2.8473053 3.607315 2.8473053 7.3338737c0 3.716629 -0.90437317 6.5239716 -2.7131348 8.422035c-1.7988281 1.8881226 -3.721878 2.8321838 -5.76915 2.8321838c-2.0373383 0 -3.6373978 -0.3676834 -4.800171 -1.1030655c-3.0510406 -1.8284912 -4.576561 -5.122772 -4.576561 -9.882839c0 -4.034622 1.0832672 -7.17984 3.2498093 -9.435654c2.1665344 -2.2558136 4.502014 -3.3837204 7.0064545 -3.3837204zm2.8323975 -9.808311c-7.205223 0 -12.929649 2.3055 -17.173279 6.9165c-4.243622 4.6109962 -6.3654404 9.8927765 -6.3654404 15.845341c0 5.9525642 1.7093735 10.792126 5.1281357 14.518688c3.418747 3.7265625 8.134445 5.5898438 14.147079 5.5898438c6.0225677 0 10.787964 -2.1216583 14.296158 -6.3649673c3.508194 -4.243309 5.2622986 -9.266716 5.2622986 -15.070221c0 -2.444622 -0.33790588 -4.6557198 -1.0137024 -6.633278c-0.66586304 -1.9874992 -1.4559479 -3.527813 -2.3702698 -4.6209373c-0.9143219 -1.1030655 -2.0919952 -2.1862526 -3.5330353 -3.2495651c-1.4311066 -1.0732498 -2.6038208 -1.6098747 -3.5181427 -1.6098747c0.17889404 -1.1030617 0.2683258 -2.1117172 0.2683258 -3.0259666c0 -0.9142494 -0.1242218 -1.4906273 -0.37268066 -1.729126c-0.23851013 -0.24843979 -1.8236694 -0.43725204 -4.7554474 -0.56643677z" fill-rule="evenodd"></path><path stroke="#000000" stroke-width="1.0" stroke-linejoin="round" stroke-linecap="butt" d="m130.8994 51.041965c-0.18882751 0.72543716 -0.28323364 1.4856567 -0.28323364 2.280655c0 0.79499817 0.064590454 1.316719 0.19378662 1.5651588l0.73046875 0c1.3416595 0 2.7131348 0.4571228 4.1144257 1.3713722c1.8982086 1.1626892 2.8473053 3.607315 2.8473053 7.3338737c0 3.716629 -0.90437317 6.5239716 -2.7131348 8.422035c-1.7988281 1.8881226 -3.721878 2.8321838 -5.76915 2.8321838c-2.0373383 0 -3.6373978 -0.3676834 -4.800171 -1.1030655c-3.0510406 -1.8284912 -4.576561 -5.122772 -4.576561 -9.882839c0 -4.034622 1.0832672 -7.17984 3.2498093 -9.435654c2.1665344 -2.2558136 4.502014 -3.3837204 7.0064545 -3.3837204zm2.8323975 -9.808311c-7.205223 0 -12.929649 2.3055 -17.173279 6.9165c-4.243622 4.6109962 -6.3654404 9.8927765 -6.3654404 15.845341c0 5.9525642 1.7093735 10.792126 5.1281357 14.518688c3.418747 3.7265625 8.134445 5.5898438 14.147079 5.5898438c6.0225677 0 10.787964 -2.1216583 14.296158 -6.3649673c3.508194 -4.243309 5.2622986 -9.266716 5.2622986 -15.070221c0 -2.444622 -0.33790588 -4.6557198 -1.0137024 -6.633278c-0.66586304 -1.9874992 -1.4559479 -3.527813 -2.3702698 -4.6209373c-0.9143219 -1.1030655 -2.0919952 -2.1862526 -3.5330353 -3.2495651c-1.4311066 -1.0732498 -2.6038208 -1.6098747 -3.5181427 -1.6098747c0.17889404 -1.1030617 0.2683258 -2.1117172 0.2683258 -3.0259666c0 -0.9142494 -0.1242218 -1.4906273 -0.37268066 -1.729126c-0.23851013 -0.24843979 -1.8236694 -0.43725204 -4.7554474 -0.56643677z" fill-rule="evenodd"></path><path fill="#a64d79" d="m159.25366 34.84517c-3.2281647 0 -5.0096283 0.16736603 -5.344406 0.5021057c-0.62171936 0.6216583 -1.8711395 3.2935944 -3.7482605 8.0158c-1.8711395 4.7162323 -2.9352264 7.4688606 -3.1922913 8.257889c-0.25704956 0.78902817 -0.4423828 1.1835403 -0.555954 1.1835403c-0.10760498 0 -0.19728088 -0.09264755 -0.26901245 -0.2779503c-0.7711792 -2.4208794 -1.9458771 -5.842987 -3.5240784 -10.266323c-1.5782166 -4.4293137 -2.4599762 -6.733631 -2.6453094 -6.912956c-0.185318 -0.18529892 -1.3151703 -0.2779503 -3.3895721 -0.2779503c-2.0743866 0 -3.975418 0.056785583 -5.703079 0.17035675c-1.7276611 0.10759354 -2.6452942 0.23311996 -2.7528992 0.3765831l-0.05380249 0.17035675c0 0.5140648 0.2271576 1.4136734 0.68148804 2.6988335c0.46032715 1.2851562 0.9475403 2.2385635 1.4616547 2.8602219l-0.49319458 5.675617c-1.0641022 11.422962 -1.5961456 20.218826 -1.5961456 26.38758c0.5141144 0.22116852 1.1746826 0.3317566 1.98172 0.3317566c2.7917633 0 4.6479645 -0.44233704 5.5685883 -1.3270035c-0.185318 -1.028122 -0.27798462 -4.7819824 -0.27798462 -11.26157c0 -6.4795914 0.3317871 -11.393078 0.99534607 -14.740467c0.035873413 -0.2570305 0.0896759 -0.38554764 0.16140747 -0.38554764c0.071746826 0 0.1643982 0.11058426 0.27798462 0.33174896c0.3287964 0.40647125 1.5752258 3.631321 3.7392883 9.674553c2.170044 6.0372543 3.3088684 9.259121 3.4164734 9.665585c0.0418396 0.10759735 0.34672546 0.2181778 0.91464233 0.33174896c0.56791687 0.10759735 1.3002319 0.16139221 2.1969452 0.16139221c0.9026947 0 1.446701 -0.20024872 1.632019 -0.6007385l1.1567535 -3.801674c0.7711792 -2.5703163 1.7336426 -5.4723816 2.8874207 -8.7062c1.1597443 -3.233818 2.1072693 -5.529171 2.842575 -6.886055l0.33177185 -0.33175278c0.25706482 0 0.4752655 2.8841362 0.65460205 8.652401c0.185318 4.6265717 0.27798462 8.61953 0.27798462 11.978874c0 3.3593369 -0.05380249 5.7921753 -0.16140747 7.2985c0 0.14943695 0.47525024 0.22415161 1.425766 0.22415161c0.9564972 0 2.179016 -0.15840149 3.6675568 -0.47520447c1.4885406 -0.31082916 2.2328033 -0.64855194 2.2328033 -1.0131836c0 -8.960243 -0.64263916 -19.262432 -1.9279175 -30.906559c0.3287964 -0.6216583 0.741272 -1.7035828 1.2374573 -3.2457733c0.4961853 -1.5481644 0.74427795 -2.6330795 0.74427795 -3.2547379c0 -0.18529892 -1.6170807 -0.2779503 -4.8512115 -0.2779503z" fill-rule="evenodd"></path><path stroke="#000000" stroke-width="1.0" stroke-linejoin="round" stroke-linecap="butt" d="m159.25366 34.84517c-3.2281647 0 -5.0096283 0.16736603 -5.344406 0.5021057c-0.62171936 0.6216583 -1.8711395 3.2935944 -3.7482605 8.0158c-1.8711395 4.7162323 -2.9352264 7.4688606 -3.1922913 8.257889c-0.25704956 0.78902817 -0.4423828 1.1835403 -0.555954 1.1835403c-0.10760498 0 -0.19728088 -0.09264755 -0.26901245 -0.2779503c-0.7711792 -2.4208794 -1.9458771 -5.842987 -3.5240784 -10.266323c-1.5782166 -4.4293137 -2.4599762 -6.733631 -2.6453094 -6.912956c-0.185318 -0.18529892 -1.3151703 -0.2779503 -3.3895721 -0.2779503c-2.0743866 0 -3.975418 0.056785583 -5.703079 0.17035675c-1.7276611 0.10759354 -2.6452942 0.23311996 -2.7528992 0.3765831l-0.05380249 0.17035675c0 0.5140648 0.2271576 1.4136734 0.68148804 2.6988335c0.46032715 1.2851562 0.9475403 2.2385635 1.4616547 2.8602219l-0.49319458 5.675617c-1.0641022 11.422962 -1.5961456 20.218826 -1.5961456 26.38758c0.5141144 0.22116852 1.1746826 0.3317566 1.98172 0.3317566c2.7917633 0 4.6479645 -0.44233704 5.5685883 -1.3270035c-0.185318 -1.028122 -0.27798462 -4.7819824 -0.27798462 -11.26157c0 -6.4795914 0.3317871 -11.393078 0.99534607 -14.740467c0.035873413 -0.2570305 0.0896759 -0.38554764 0.16140747 -0.38554764c0.071746826 0 0.1643982 0.11058426 0.27798462 0.33174896c0.3287964 0.40647125 1.5752258 3.631321 3.7392883 9.674553c2.170044 6.0372543 3.3088684 9.259121 3.4164734 9.665585c0.0418396 0.10759735 0.34672546 0.2181778 0.91464233 0.33174896c0.56791687 0.10759735 1.3002319 0.16139221 2.1969452 0.16139221c0.9026947 0 1.446701 -0.20024872 1.632019 -0.6007385l1.1567535 -3.801674c0.7711792 -2.5703163 1.7336426 -5.4723816 2.8874207 -8.7062c1.1597443 -3.233818 2.1072693 -5.529171 2.842575 -6.886055l0.33177185 -0.33175278c0.25706482 0 0.4752655 2.8841362 0.65460205 8.652401c0.185318 4.6265717 0.27798462 8.61953 0.27798462 11.978874c0 3.3593369 -0.05380249 5.7921753 -0.16140747 7.2985c0 0.14943695 0.47525024 0.22415161 1.425766 0.22415161c0.9564972 0 2.179016 -0.15840149 3.6675568 -0.47520447c1.4885406 -0.31082916 2.2328033 -0.64855194 2.2328033 -1.0131836c0 -8.960243 -0.64263916 -19.262432 -1.9279175 -30.906559c0.3287964 -0.6216583 0.741272 -1.7035828 1.2374573 -3.2457733c0.4961853 -1.5481644 0.74427795 -2.6330795 0.74427795 -3.2547379c0 -0.18529892 -1.6170807 -0.2779503 -4.8512115 -0.2779503z" fill-rule="evenodd"></path><path fill="#674ea7" d="m169.9866 51.061703c-12.488205 0 -18.932571 0.20323563 -19.333115 0.60970306c0 0.44233322 0.31983948 1.434597 0.9594879 2.9767838c0.6456299 1.5421906 1.1687164 2.5135307 1.5692444 2.9140244c0.07771301 0.14943695 0.11657715 1.0131798 0.11657715 2.591236l-0.06277466 5.9535675c-1.9428711 0.07173157 -2.9143066 0.12552643 -2.9143066 0.16139221c0 0.88466644 0.30187988 1.9516525 0.90567017 3.200943c0.6097717 1.2433167 1.2434387 2.1608582 1.9010315 2.7526321c-0.07173157 3.7418976 -0.10760498 7.295517 -0.10760498 10.660835c0 3.3593369 0.1105957 5.1286774 0.3317871 5.3079987c0.2211914 0.2988739 3.4433746 0.44831085 9.66655 0.44831085c6.223175 0 9.520081 -0.18530273 9.890732 -0.5559082c0.6575775 -0.6216583 1.2793121 -1.5391998 1.8651581 -2.7526245c0.5918274 -1.2134323 0.8877411 -2.259491 0.8877411 -3.138176c0 -0.0076904297 -0.01852417 -0.011528015 -0.05558777 -0.011528015c-0.13587952 0 -0.520874 0.05165863 -1.1549683 0.15498352c-0.80703735 0.12552643 -2.3673248 0.18829346 -4.680832 0.18829346c-5.7329865 0 -8.892395 -0.2958908 -9.478241 -0.88765717c-0.18533325 -0.17932892 -0.27798462 -1.7932434 -0.27798462 -4.8417587c0 -3.0485153 0.017929077 -4.590706 0.05380249 -4.6265717c0.370636 -0.22116089 1.7127228 -0.41542816 4.02623 -0.5828018c2.3135223 -0.16737366 3.9485168 -0.25105286 4.905014 -0.25105286c0.0047454834 0.0027618408 0.010040283 0.004142761 0.015899658 0.004142761c0.082855225 0 0.27781677 -0.2763443 0.5848999 -0.8290405c0.88475037 -1.685646 1.3271332 -3.1919708 1.3271332 -4.5189743c0 -0.10758972 -1.4347382 -0.16139221 -4.3042145 -0.16139221c-2.8634949 0 -5.030548 0.017936707 -6.5011597 0.05380249l-0.05380249 -2.3132858c0 -3.8196106 0.1105957 -5.8399963 0.3317871 -6.061165c0.22117615 -0.22116852 1.5243988 -0.41244507 3.9096527 -0.5738373c2.3912354 -0.16736984 4.2563934 -0.25105667 5.5954895 -0.25105667c1.3390808 0 2.0923157 0.029888153 2.2597046 0.08966446c0.014923096 0.0047912598 0.030685425 0.0071907043 0.047317505 0.0071907043c0.16993713 0 0.42915344 -0.2504654 0.7776642 -0.75138855c0.38856506 -0.5559044 0.7562256 -1.2911339 1.102951 -2.2056885c0.34672546 -0.9205322 0.5200958 -1.766346 0.5200958 -2.5374413c0 -0.14943695 -1.5423431 -0.22415543 -4.6270294 -0.22415543z" fill-rule="evenodd"></path><path stroke="#000000" stroke-width="1.0" stroke-linejoin="round" stroke-linecap="butt" d="m169.9866 51.061703c-12.488205 0 -18.932571 0.20323563 -19.333115 0.60970306c0 0.44233322 0.31983948 1.434597 0.9594879 2.9767838c0.6456299 1.5421906 1.1687164 2.5135307 1.5692444 2.9140244c0.07771301 0.14943695 0.11657715 1.0131798 0.11657715 2.591236l-0.06277466 5.9535675c-1.9428711 0.07173157 -2.9143066 0.12552643 -2.9143066 0.16139221c0 0.88466644 0.30187988 1.9516525 0.90567017 3.200943c0.6097717 1.2433167 1.2434387 2.1608582 1.9010315 2.7526321c-0.07173157 3.7418976 -0.10760498 7.295517 -0.10760498 10.660835c0 3.3593369 0.1105957 5.1286774 0.3317871 5.3079987c0.2211914 0.2988739 3.4433746 0.44831085 9.66655 0.44831085c6.223175 0 9.520081 -0.18530273 9.890732 -0.5559082c0.6575775 -0.6216583 1.2793121 -1.5391998 1.8651581 -2.7526245c0.5918274 -1.2134323 0.8877411 -2.259491 0.8877411 -3.138176c0 -0.0076904297 -0.01852417 -0.011528015 -0.05558777 -0.011528015c-0.13587952 0 -0.520874 0.05165863 -1.1549683 0.15498352c-0.80703735 0.12552643 -2.3673248 0.18829346 -4.680832 0.18829346c-5.7329865 0 -8.892395 -0.2958908 -9.478241 -0.88765717c-0.18533325 -0.17932892 -0.27798462 -1.7932434 -0.27798462 -4.8417587c0 -3.0485153 0.017929077 -4.590706 0.05380249 -4.6265717c0.370636 -0.22116089 1.7127228 -0.41542816 4.02623 -0.5828018c2.3135223 -0.16737366 3.9485168 -0.25105286 4.905014 -0.25105286c0.0047454834 0.0027618408 0.010040283 0.004142761 0.015899658 0.004142761c0.082855225 0 0.27781677 -0.2763443 0.5848999 -0.8290405c0.88475037 -1.685646 1.3271332 -3.1919708 1.3271332 -4.5189743c0 -0.10758972 -1.4347382 -0.16139221 -4.3042145 -0.16139221c-2.8634949 0 -5.030548 0.017936707 -6.5011597 0.05380249l-0.05380249 -2.3132858c0 -3.8196106 0.1105957 -5.8399963 0.3317871 -6.061165c0.22117615 -0.22116852 1.5243988 -0.41244507 3.9096527 -0.5738373c2.3912354 -0.16736984 4.2563934 -0.25105667 5.5954895 -0.25105667c1.3390808 0 2.0923157 0.029888153 2.2597046 0.08966446c0.014923096 0.0047912598 0.030685425 0.0071907043 0.047317505 0.0071907043c0.16993713 0 0.42915344 -0.2504654 0.7776642 -0.75138855c0.38856506 -0.5559044 0.7562256 -1.2911339 1.102951 -2.2056885c0.34672546 -0.9205322 0.5200958 -1.766346 0.5200958 -2.5374413c0 -0.14943695 -1.5423431 -0.22415543 -4.6270294 -0.22415543z" fill-rule="evenodd"></path><path fill="#6aa84f" d="m93.01109 109.95273c-0.18882751 0.72543335 -0.28324127 1.4856567 -0.28324127 2.280655c0 0.79499817 0.06459808 1.316719 0.19379425 1.565155l0.7304611 0c1.3416672 0 2.7131424 0.4571228 4.1144333 1.371376c1.898201 1.1626892 2.8473053 3.607315 2.8473053 7.3338776c0 3.7166214 -0.9043808 6.523964 -2.7131424 8.42202c-1.7988205 1.8881226 -3.7218704 2.832199 -5.769142 2.832199c-2.0373383 0 -3.6373978 -0.36769104 -4.800171 -1.1030731c-3.0510406 -1.8284912 -4.576561 -5.122772 -4.576561 -9.882835c0 -4.034622 1.0832672 -7.17984 3.2498016 -9.435654c2.166542 -2.2558136 4.5020294 -3.3837204 7.006462 -3.3837204zm2.8323975 -9.808311c-7.205223 0 -12.929649 2.3054962 -17.173279 6.9164963c-4.2436295 4.611 -6.3654404 9.8927765 -6.3654404 15.845345c0 5.952568 1.7093735 10.792122 5.128128 14.518684c3.4187546 3.7265625 8.134453 5.5898438 14.147087 5.5898438c6.0225754 0 10.787956 -2.1216583 14.296158 -6.364975c3.5082016 -4.2433014 5.2622986 -9.266708 5.2622986 -15.070213c0 -2.4446182 -0.33789825 -4.655716 -1.0137024 -6.633278c-0.66586304 -1.9874954 -1.4559479 -3.5278091 -2.3702698 -4.6209335c-0.91431427 -1.1030655 -2.0919952 -2.1862564 -3.533043 -3.2495651c-1.4311066 -1.0732498 -2.6038208 -1.6098785 -3.518135 -1.6098785c0.17888641 -1.1030579 0.26833344 -2.1117172 0.26833344 -3.0259628c0 -0.91425323 -0.12422943 -1.4906235 -0.3726883 -1.729126c-0.23851776 -0.2484436 -1.8236694 -0.43725586 -4.7554474 -0.56643677z" fill-rule="evenodd"></path><path stroke="#000000" stroke-width="1.0" stroke-linejoin="round" stroke-linecap="butt" d="m93.01109 109.95273c-0.18882751 0.72543335 -0.28324127 1.4856567 -0.28324127 2.280655c0 0.79499817 0.06459808 1.316719 0.19379425 1.565155l0.7304611 0c1.3416672 0 2.7131424 0.4571228 4.1144333 1.371376c1.898201 1.1626892 2.8473053 3.607315 2.8473053 7.3338776c0 3.7166214 -0.9043808 6.523964 -2.7131424 8.42202c-1.7988205 1.8881226 -3.7218704 2.832199 -5.769142 2.832199c-2.0373383 0 -3.6373978 -0.36769104 -4.800171 -1.1030731c-3.0510406 -1.8284912 -4.576561 -5.122772 -4.576561 -9.882835c0 -4.034622 1.0832672 -7.17984 3.2498016 -9.435654c2.166542 -2.2558136 4.5020294 -3.3837204 7.006462 -3.3837204zm2.8323975 -9.808311c-7.205223 0 -12.929649 2.3054962 -17.173279 6.9164963c-4.2436295 4.611 -6.3654404 9.8927765 -6.3654404 15.845345c0 5.952568 1.7093735 10.792122 5.128128 14.518684c3.4187546 3.7265625 8.134453 5.5898438 14.147087 5.5898438c6.0225754 0 10.787956 -2.1216583 14.296158 -6.364975c3.5082016 -4.2433014 5.2622986 -9.266708 5.2622986 -15.070213c0 -2.4446182 -0.33789825 -4.655716 -1.0137024 -6.633278c-0.66586304 -1.9874954 -1.4559479 -3.5278091 -2.3702698 -4.6209335c-0.91431427 -1.1030655 -2.0919952 -2.1862564 -3.533043 -3.2495651c-1.4311066 -1.0732498 -2.6038208 -1.6098785 -3.518135 -1.6098785c0.17888641 -1.1030579 0.26833344 -2.1117172 0.26833344 -3.0259628c0 -0.91425323 -0.12422943 -1.4906235 -0.3726883 -1.729126c-0.23851776 -0.2484436 -1.8236694 -0.43725586 -4.7554474 -0.56643677z" fill-rule="evenodd"></path><path fill="#e69138" d="m85.97972 89.913445c-4.849861 0 -10.281113 0.16893768 -16.293747 0.50681305c-6.0126343 0.33787537 -11.399162 0.5366211 -16.159576 0.5962448l-0.5515709 1.1030655c-0.9838867 2.1961899 -1.4758301 4.760063 -1.4758301 7.6916275l0.28324127 2.3849945l2.4746208 -0.37265015c4.8200455 -0.60619354 8.1791725 -0.9092865 10.077377 -0.9092865c0.8546829 0 1.3565674 0.074531555 1.5056381 0.22359467c0.14907837 0.14906311 0.22360992 1.783783 0.22360992 4.9041595l-0.6410141 38.085464c0 6.479248 0.21367645 9.962341 0.6410141 10.44928c1.2224045 0.54655457 2.812523 0.8198395 4.770355 0.8198395c1.4012909 0 3.2895584 -0.24346924 5.6648026 -0.7304077c2.3851776 -0.48692322 3.5777664 -1.0036774 3.5777664 -1.5502472l0 -0.1043396c-1.8286362 -3.348938 -2.742958 -12.779617 -2.742958 -28.29206c0 -15.512436 0.21367645 -23.482307 0.6410141 -23.909622c0.17889404 -0.17887878 2.1615677 -0.26831818 5.948036 -0.26831818c3.7864761 0 6.3853226 0.15402985 7.7965546 0.46209717c0.42733765 -0.42731476 0.79008484 -1.8781891 1.088234 -4.352623c0.30808258 -2.4744415 0.4621277 -4.596092 0.4621277 -6.3649673c0 -0.24843597 -2.4299011 -0.37265778 -7.2896957 -0.37265778z" fill-rule="evenodd"></path><path stroke="#000000" stroke-width="1.0" stroke-linejoin="round" stroke-linecap="butt" d="m85.97972 89.913445c-4.849861 0 -10.281113 0.16893768 -16.293747 0.50681305c-6.0126343 0.33787537 -11.399162 0.5366211 -16.159576 0.5962448l-0.5515709 1.1030655c-0.9838867 2.1961899 -1.4758301 4.760063 -1.4758301 7.6916275l0.28324127 2.3849945l2.4746208 -0.37265015c4.8200455 -0.60619354 8.1791725 -0.9092865 10.077377 -0.9092865c0.8546829 0 1.3565674 0.074531555 1.5056381 0.22359467c0.14907837 0.14906311 0.22360992 1.783783 0.22360992 4.9041595l-0.6410141 38.085464c0 6.479248 0.21367645 9.962341 0.6410141 10.44928c1.2224045 0.54655457 2.812523 0.8198395 4.770355 0.8198395c1.4012909 0 3.2895584 -0.24346924 5.6648026 -0.7304077c2.3851776 -0.48692322 3.5777664 -1.0036774 3.5777664 -1.5502472l0 -0.1043396c-1.8286362 -3.348938 -2.742958 -12.779617 -2.742958 -28.29206c0 -15.512436 0.21367645 -23.482307 0.6410141 -23.909622c0.17889404 -0.17887878 2.1615677 -0.26831818 5.948036 -0.26831818c3.7864761 0 6.3853226 0.15402985 7.7965546 0.46209717c0.42733765 -0.42731476 0.79008484 -1.8781891 1.088234 -4.352623c0.30808258 -2.4744415 0.4621277 -4.596092 0.4621277 -6.3649673c0 -0.24843597 -2.4299011 -0.37265778 -7.2896957 -0.37265778z" fill-rule="evenodd"></path><path fill="#a64d79" d="m64.79272 120.430504c-5.257332 0 -10.2065735 1.5601883 -14.847733 4.680565c-4.641159 3.110443 -6.961735 6.5289307 -6.961735 10.255493c0 1.7688751 0.76524353 3.463211 2.2957306 5.0830383c1.5304909 1.619812 3.2100525 2.9166565 5.0386887 3.8905334c1.8286362 0.97387695 3.503231 2.1017761 5.023781 3.3837128c1.5304871 1.2819366 2.2957344 2.5042572 2.2957344 3.6669312c0 1.7688751 -1.2522202 3.478119 -3.7566566 5.127762c-2.4944954 1.6496124 -6.1269226 2.4744263 -10.897278 2.4744263l0 0.64097595c0 2.6831207 0.76524353 5.0333405 2.2957306 7.050659c0.54660416 0.7353668 0.97394943 1.1030579 1.2820358 1.1030579c2.683323 0 5.808899 -0.56643677 9.376728 -1.6993103c3.5777664 -1.1328735 6.907078 -2.9961548 9.98793 -5.5898438c3.0907898 -2.593689 4.6361923 -5.540161 4.6361923 -8.839401c-0.059631348 -2.1365662 -0.85469055 -4.11911 -2.3851776 -5.9476013c-1.5304947 -1.8284912 -3.2100525 -3.2644653 -5.0386887 -4.307907c-4.760418 -2.742752 -7.140629 -4.9091187 -7.140629 -6.499115c0 -2.2558136 2.4100266 -4.1489105 7.230072 -5.679291c2.4448051 -0.7353668 4.278408 -1.1030579 5.5008125 -1.1030579c-0.05962372 -1.7688751 -0.58138275 -3.4930344 -1.5652695 -5.17247c-0.9739456 -1.6794357 -1.7640381 -2.5191574 -2.3702698 -2.5191574z" fill-rule="evenodd"></path><path stroke="#000000" stroke-width="1.0" stroke-linejoin="round" stroke-linecap="butt" d="m64.79272 120.430504c-5.257332 0 -10.2065735 1.5601883 -14.847733 4.680565c-4.641159 3.110443 -6.961735 6.5289307 -6.961735 10.255493c0 1.7688751 0.76524353 3.463211 2.2957306 5.0830383c1.5304909 1.619812 3.2100525 2.9166565 5.0386887 3.8905334c1.8286362 0.97387695 3.503231 2.1017761 5.023781 3.3837128c1.5304871 1.2819366 2.2957344 2.5042572 2.2957344 3.6669312c0 1.7688751 -1.2522202 3.478119 -3.7566566 5.127762c-2.4944954 1.6496124 -6.1269226 2.4744263 -10.897278 2.4744263l0 0.64097595c0 2.6831207 0.76524353 5.0333405 2.2957306 7.050659c0.54660416 0.7353668 0.97394943 1.1030579 1.2820358 1.1030579c2.683323 0 5.808899 -0.56643677 9.376728 -1.6993103c3.5777664 -1.1328735 6.907078 -2.9961548 9.98793 -5.5898438c3.0907898 -2.593689 4.6361923 -5.540161 4.6361923 -8.839401c-0.059631348 -2.1365662 -0.85469055 -4.11911 -2.3851776 -5.9476013c-1.5304947 -1.8284912 -3.2100525 -3.2644653 -5.0386887 -4.307907c-4.760418 -2.742752 -7.140629 -4.9091187 -7.140629 -6.499115c0 -2.2558136 2.4100266 -4.1489105 7.230072 -5.679291c2.4448051 -0.7353668 4.278408 -1.1030579 5.5008125 -1.1030579c-0.05962372 -1.7688751 -0.58138275 -3.4930344 -1.5652695 -5.17247c-0.9739456 -1.6794357 -1.7640381 -2.5191574 -2.3702698 -2.5191574z" fill-rule="evenodd"></path><path fill="#ff00ff" d="m37.17514 18.715883c-1.8938675 0.6319561 -3.992752 1.4056377 -6.2966595 2.321043c-2.3039036 0.9154053 -4.381439 1.6948986 -6.2326107 2.3384838l-0.071660995 0.5026016c-0.09804344 0.9857826 0.04392433 2.0510406 0.42590523 3.1957722l0.42136765 0.89440155l0.91778183 -0.4679699c1.8032379 -0.8647785 3.0754795 -1.4208393 3.8167286 -1.6681843c0.3337536 -0.11136818 0.5394497 -0.14766312 0.6170864 -0.108881c0.07763481 0.03878212 0.3197441 0.6674042 0.7263279 1.8858643l4.7121944 14.955343c0.8442421 2.5300522 1.3815231 3.8623047 1.6118507 3.9967613c0.5485649 0.054142 1.2051125 -0.046344757 1.9696465 -0.30145645c0.54720306 -0.1825943 1.2528458 -0.523716 2.1169243 -1.0233574c0.8679657 -0.50094223 1.2663383 -0.8581238 1.195118 -1.0715485l-0.013595581 -0.04074478c-1.150444 -1.0694313 -2.7362976 -4.6328354 -4.757557 -10.690216c-2.0212593 -6.057379 -2.9762917 -9.19734 -2.8650932 -9.419886c0.04655075 -0.093156815 0.8091316 -0.38643265 2.2877426 -0.8798237c1.4786148 -0.49339294 2.5135345 -0.7718868 3.1047592 -0.83548164c0.111198425 -0.22254372 0.06380081 -0.8363552 -0.14218903 -1.8414364c-0.20211029 -1.0063763 -0.41840744 -1.8549252 -0.64889145 -2.5456448c-0.03237152 -0.097011566 -0.9974289 0.17110825 -2.895176 0.80435944z" fill-rule="evenodd"></path><path fill="#ff00ff" d="m45.184174 15.84932c-0.5937729 0.19813442 -1.168747 0.53662014 -1.7249222 1.01546c-0.5574722 0.47495842 -0.9325371 0.901989 -1.1251984 1.2810898c-0.08016586 0.16043854 0.26561737 1.3970318 1.0373459 3.7097797l4.2515335 12.372763c1.3764267 4.124916 2.1443634 6.742962 2.3038101 7.8541374c0.024600983 0.073726654 0.13198471 0.07886505 0.32214737 0.015411377c1.90551 -0.63584137 3.1097717 -1.3956261 3.6127892 -2.279354c0.08405304 -0.13586044 -0.18791962 -1.1447983 -0.8159218 -3.0268173c-0.62800217 -1.8820152 -1.2397957 -3.637909 -1.8353844 -5.267679l0.092926025 -0.78785515c0.042549133 -0.5187626 0.23903656 -1.0867348 0.5894661 -1.7039223c0.34913635 -0.62106705 0.8089485 -1.0267811 1.3794365 -1.2171459c0.88095856 -0.29396248 1.635952 0.023361206 2.2649765 0.95196915c0.6290245 0.92860794 1.2737236 2.3824272 1.9340973 4.361456c0.6603737 1.9790268 1.2282791 4.0816307 1.7037163 6.307808l1.2419357 -0.21388626c0.47734833 -0.15928268 1.060749 -0.4337387 1.750206 -0.82336044c0.6933403 -0.39091873 1.0432129 -0.6931038 1.0496178 -0.906559l-1.4413033 -4.8040504c-0.6448364 -1.9324627 -1.2132416 -3.5195522 -1.7052193 -4.7612686c-0.3832054 -0.9028244 -0.718483 -1.603857 -1.0058365 -2.103096c-0.28477097 -0.5044193 -0.6407013 -1.0346832 -1.0677948 -1.5907955c-0.42450714 -0.56128883 -0.8476753 -0.9569931 -1.2695045 -1.1871128c-0.41794586 -0.23141289 -0.8992653 -0.3877735 -1.4439545 -0.46908188c-0.5459862 -0.08518982 -1.1721382 -0.009939194 -1.8784561 0.22574806c-0.70243835 0.23439407 -1.3834686 0.69451904 -2.0430832 1.3803768c-0.657032 0.6806793 -1.0780029 1.1834049 -1.2629166 1.5081711l-0.47712326 0.9548683c-0.06985474 0.023309708 -0.12485123 -0.025180817 -0.16499329 -0.14547539l-0.10682297 -0.32013702c-0.3017006 -0.9041443 -0.9031906 -2.82304 -1.8044739 -5.7566853c-0.8973999 -2.9349403 -1.3700676 -4.513008 -1.4179993 -4.7342024c-0.031074524 -0.093131065 -0.3454399 -0.039981842 -0.94309616 0.15944672z" fill-rule="evenodd"></path><path fill="#ff00ff" d="m69.36656 20.892225c0.7373657 -0.24604988 1.2212906 -0.023714066 1.4517746 0.66700554c0.36643982 1.0981655 0.15008545 2.3174915 -0.64907074 3.6579762c-0.7965698 1.33531 -1.6191559 2.1596432 -2.4677658 2.4729977c-0.09702301 0.032375336 -0.20121002 -0.11829567 -0.31256866 -0.45201492c-0.47003174 -1.4086037 -0.5033951 -2.7365055 -0.100105286 -3.9837093c0.4071808 -1.2484989 1.0997543 -2.0359173 2.077736 -2.362255zm-0.28820038 -3.4810677c-2.7398987 0.9142647 -4.5798035 2.4899082 -5.519722 4.7269287c-0.93733597 2.2318459 -1.0143089 4.5216026 -0.23092651 6.869274c0.78338623 2.3476734 2.0426712 4.0147266 3.7778702 5.0011616c1.733902 0.9825554 3.7806396 1.0801544 6.1402054 0.2927971c2.3595734 -0.7873535 3.8536224 -1.5899315 4.482155 -2.4077263c0.34256744 -0.96387863 0.28337097 -2.1365376 -0.17759705 -3.5179749c-0.15149689 -0.45401192 -0.25247192 -0.6726017 -0.3029251 -0.65576553c-0.046569824 0.015539169 -0.07761383 0.038835526 -0.09312439 0.06988716c-0.8328934 0.9938011 -2.1555252 1.7930851 -3.9678879 2.3978462c-0.57437134 0.19165802 -1.1843491 0.29600906 -1.8299179 0.31305313c-0.6416931 0.015748978 -1.0104523 -0.119953156 -1.1062698 -0.4071083c1.9893494 -1.5090714 3.389351 -3.2074566 4.199997 -5.095152c0.8145218 -1.8889904 0.97317505 -3.5785313 0.47595215 -5.0686226c-0.4972229 -1.4900932 -1.3164139 -2.374651 -2.4575806 -2.653677c-1.1385803 -0.28420067 -2.2686539 -0.2391758 -3.3902283 0.13507843z" fill-rule="evenodd"></path><path stroke="#000000" stroke-width="1.0" stroke-linejoin="round" stroke-linecap="butt" d="m37.17514 18.715883c-1.8938675 0.6319561 -3.992752 1.4056377 -6.2966595 2.321043c-2.3039036 0.9154053 -4.381439 1.6948986 -6.2326107 2.3384838l-0.071660995 0.5026016c-0.09804344 0.9857826 0.04392433 2.0510406 0.42590523 3.1957722l0.42136765 0.89440155l0.91778183 -0.4679699c1.8032379 -0.8647785 3.0754795 -1.4208393 3.8167286 -1.6681843c0.3337536 -0.11136818 0.5394497 -0.14766312 0.6170864 -0.108881c0.07763481 0.03878212 0.3197441 0.6674042 0.7263279 1.8858643l4.7121944 14.955343c0.8442421 2.5300522 1.3815231 3.8623047 1.6118507 3.9967613c0.5485649 0.054142 1.2051125 -0.046344757 1.9696465 -0.30145645c0.54720306 -0.1825943 1.2528458 -0.523716 2.1169243 -1.0233574c0.8679657 -0.50094223 1.2663383 -0.8581238 1.195118 -1.0715485l-0.013595581 -0.04074478c-1.150444 -1.0694313 -2.7362976 -4.6328354 -4.757557 -10.690216c-2.0212593 -6.057379 -2.9762917 -9.19734 -2.8650932 -9.419886c0.04655075 -0.093156815 0.8091316 -0.38643265 2.2877426 -0.8798237c1.4786148 -0.49339294 2.5135345 -0.7718868 3.1047592 -0.83548164c0.111198425 -0.22254372 0.06380081 -0.8363552 -0.14218903 -1.8414364c-0.20211029 -1.0063763 -0.41840744 -1.8549252 -0.64889145 -2.5456448c-0.03237152 -0.097011566 -0.9974289 0.17110825 -2.895176 0.80435944z" fill-rule="evenodd"></path><path stroke="#000000" stroke-width="1.0" stroke-linejoin="round" stroke-linecap="butt" d="m45.184174 15.84932c-0.5937729 0.19813442 -1.168747 0.53662014 -1.7249222 1.01546c-0.5574722 0.47495842 -0.9325371 0.901989 -1.1251984 1.2810898c-0.08016586 0.16043854 0.26561737 1.3970318 1.0373459 3.7097797l4.2515335 12.372763c1.3764267 4.124916 2.1443634 6.742962 2.3038101 7.8541374c0.024600983 0.073726654 0.13198471 0.07886505 0.32214737 0.015411377c1.90551 -0.63584137 3.1097717 -1.3956261 3.6127892 -2.279354c0.08405304 -0.13586044 -0.18791962 -1.1447983 -0.8159218 -3.0268173c-0.62800217 -1.8820152 -1.2397957 -3.637909 -1.8353844 -5.267679l0.092926025 -0.78785515c0.042549133 -0.5187626 0.23903656 -1.0867348 0.5894661 -1.7039223c0.34913635 -0.62106705 0.8089485 -1.0267811 1.3794365 -1.2171459c0.88095856 -0.29396248 1.635952 0.023361206 2.2649765 0.95196915c0.6290245 0.92860794 1.2737236 2.3824272 1.9340973 4.361456c0.6603737 1.9790268 1.2282791 4.0816307 1.7037163 6.307808l1.2419357 -0.21388626c0.47734833 -0.15928268 1.060749 -0.4337387 1.750206 -0.82336044c0.6933403 -0.39091873 1.0432129 -0.6931038 1.0496178 -0.906559l-1.4413033 -4.8040504c-0.6448364 -1.9324627 -1.2132416 -3.5195522 -1.7052193 -4.7612686c-0.3832054 -0.9028244 -0.718483 -1.603857 -1.0058365 -2.103096c-0.28477097 -0.5044193 -0.6407013 -1.0346832 -1.0677948 -1.5907955c-0.42450714 -0.56128883 -0.8476753 -0.9569931 -1.2695045 -1.1871128c-0.41794586 -0.23141289 -0.8992653 -0.3877735 -1.4439545 -0.46908188c-0.5459862 -0.08518982 -1.1721382 -0.009939194 -1.8784561 0.22574806c-0.70243835 0.23439407 -1.3834686 0.69451904 -2.0430832 1.3803768c-0.657032 0.6806793 -1.0780029 1.1834049 -1.2629166 1.5081711l-0.47712326 0.9548683c-0.06985474 0.023309708 -0.12485123 -0.025180817 -0.16499329 -0.14547539l-0.10682297 -0.32013702c-0.3017006 -0.9041443 -0.9031906 -2.82304 -1.8044739 -5.7566853c-0.8973999 -2.9349403 -1.3700676 -4.513008 -1.4179993 -4.7342024c-0.031074524 -0.093131065 -0.3454399 -0.039981842 -0.94309616 0.15944672z" fill-rule="evenodd"></path><path stroke="#000000" stroke-width="1.0" stroke-linejoin="round" stroke-linecap="butt" d="m69.36656 20.892225c0.7373657 -0.24604988 1.2212906 -0.023714066 1.4517746 0.66700554c0.36643982 1.0981655 0.15008545 2.3174915 -0.64907074 3.6579762c-0.7965698 1.33531 -1.6191559 2.1596432 -2.4677658 2.4729977c-0.09702301 0.032375336 -0.20121002 -0.11829567 -0.31256866 -0.45201492c-0.47003174 -1.4086037 -0.5033951 -2.7365055 -0.100105286 -3.9837093c0.4071808 -1.2484989 1.0997543 -2.0359173 2.077736 -2.362255zm-0.28820038 -3.4810677c-2.7398987 0.9142647 -4.5798035 2.4899082 -5.519722 4.7269287c-0.93733597 2.2318459 -1.0143089 4.5216026 -0.23092651 6.869274c0.78338623 2.3476734 2.0426712 4.0147266 3.7778702 5.0011616c1.733902 0.9825554 3.7806396 1.0801544 6.1402054 0.2927971c2.3595734 -0.7873535 3.8536224 -1.5899315 4.482155 -2.4077263c0.34256744 -0.96387863 0.28337097 -2.1365376 -0.17759705 -3.5179749c-0.15149689 -0.45401192 -0.25247192 -0.6726017 -0.3029251 -0.65576553c-0.046569824 0.015539169 -0.07761383 0.038835526 -0.09312439 0.06988716c-0.8328934 0.9938011 -2.1555252 1.7930851 -3.9678879 2.3978462c-0.57437134 0.19165802 -1.1843491 0.29600906 -1.8299179 0.31305313c-0.6416931 0.015748978 -1.0104523 -0.119953156 -1.1062698 -0.4071083c1.9893494 -1.5090714 3.389351 -3.2074566 4.199997 -5.095152c0.8145218 -1.8889904 0.97317505 -3.5785313 0.47595215 -5.0686226c-0.4972229 -1.4900932 -1.3164139 -2.374651 -2.4575806 -2.653677c-1.1385803 -0.28420067 -2.2686539 -0.2391758 -3.3902283 0.13507843z" fill-rule="evenodd"></path></g></svg>

